<svg viewBox="0 0 1000 1000" fill="none" xmlns="http://www.w3.org/2000/svg">
    <defs>
        <symbol id="brand" viewBox="0 0 1000 1000">
            <path
                d="M925 0H75C33.5786 0 0 33.5786 0 75V925C0 966.421 33.5786 1000 75 1000H925C966.421 1000 1000 966.421 1000 925V75C1000 33.5786 966.421 0 925 0Z"
                fill="#333333" />
            <path d="M590.904 391.664L391.665 409.095L409.096 608.335L608.336 590.904L590.904 391.664Z" fill="#6877F7" />
            <path d="M390.905 591.663L191.665 609.094L209.096 808.333L408.336 790.902L390.905 591.663Z" fill="#5867E9" />
            <path d="M790.905 591.663L591.666 609.094L609.097 808.333L808.336 790.902L790.905 591.663Z" fill="#3F52FA" />
            <path d="M790.905 391.664L591.666 409.095L609.097 608.335L808.336 590.904L790.905 391.664Z" fill="#5C6CF8" />
            <path d="M790.905 191.665L591.666 209.096L609.097 408.335L808.336 390.904L790.905 191.665Z" fill="#7C8AFC" />
            <path d="M390.905 391.664L191.665 409.095L209.096 608.335L408.336 590.904L390.905 391.664Z" fill="#7380F2" />
            <path d="M390.905 191.665L191.665 209.096L209.096 408.335L408.336 390.904L390.905 191.665Z" fill="#8D98FA" />
        </symbol>
    </defs>
</svg>
